{"title":"Tripple 9 (2016) Bluray HQ 1080p x264 DTS-HDMA 5.1 MSubs -DDR","uid":14668079,"size":12159108087,"categoryP":"video","categoryS":"hd___movies","magnet":"?xt=urn:btih:c859c6024d0ded70a78763d1fa5e95ffc3f2a3f4&amp;dn=Tripple+9+%282016%29+Bluray+HQ+1080p+x264+DTS-HDMA+5.1+MSubs+-DDR&amp;tr=udp%3A%2F%2Ftracker.leechers-paradise.org%3A6969&amp;tr=udp%3A%2F%2Fzer0day.ch%3A1337&amp;tr=udp%3A%2F%2Fopen.demonii.com%3A1337&amp;tr=udp%3A%2F%2Ftracker.coppersurfer.tk%3A6969&amp;tr=udp%3A%2F%2Fexodus.desync.com%3A6969","seeders":5,"leechers":2,"uploader":"SaM","files":3,"time":1463833496,"description":"- HollywooD MoviE -\r\n**- TRIPLE 9 -**\r\n- (2016) -\r\n** HQ 1080p Blu-Ray / x264 / DTS-HDMA 5.1 **\r\nEnglish &amp; French subtitles\r\n\r\n~* SCREENSHOTS *~\r\n \nhttp://extraimago.com/image/aMfQ \nhttp://extraimago.com/image/aMfL \nhttp://extraimago.com/image/aMfy \nhttp://extraimago.com/image/aMfq \nhttp://extraimago.com/image/aMfS \nhttp://extraimago.com/image/aMfO \nhttp://extraimago.com/image/aMfE \nhttp://extraimago.com/image/aMf1 \nhttp://extraimago.com/image/aMfc\r\n\r\n[ Specs ]\r\nGeneral\r\nSource = BD50 @ HDCLUB\r\nFormat : Matroska\r\nFile size : 11.2 GiB\r\nDuration : 1h 55mn\r\nOverall bit rate : 13.8 Mbps\r\n\r\nVideo\r\nFormat : AVC\r\nFormat profile :   \r\nBit rate : 10 000 Kbps\r\nWidth : 1 920 pixels\r\nHeight : 804 pixels\r\nDisplay aspect ratio : 2.40:1\r\nFrame rate mode : Constant\r\nFrame rate : 23.976 (24000/1001) fps\r\nStream size : 8.09 GiB (72%)\r\nBit depth : 8 bits\r\nScan type : Progressive\r\nTransfer characteristics : BT.709\r\n\r\nAudio #1\r\nFormat : DTS\r\nFormat profile : MA / Core\r\nBit rate mode : Variable / Constant\r\nBit rate : 3 840 Kbps / 1 509 Kbps\r\nChannel(s) : 6 channels\r\nChannel positions : Front: L C R, Side: L R, LFE\r\nSampling rate : 48.0 KHz\r\nFrame rate : 93.750 fps (512 spf)\r\nBit depth : 24 bits\r\nCompression mode : Lossless / Lossy\r\nStream size : 3.05 GiB (27%)\r\nLanguage : English\r\nDefault : Yes\r\nForced : No\r\n\r\nChapters: YES\r\n\r\n\r\nA DDR Exclusive Release...!","torrent":{"xt":"urn:btih:c859c6024d0ded70a78763d1fa5e95ffc3f2a3f4","amp;dn":"Tripple+9+%282016%29+Bluray+HQ+1080p+x264+DTS-HDMA+5.1+MSubs+-DDR","amp;tr":["udp%3A%2F%2Ftracker.leechers-paradise.org%3A6969","udp%3A%2F%2Fzer0day.ch%3A1337","udp%3A%2F%2Fopen.demonii.com%3A1337","udp%3A%2F%2Ftracker.coppersurfer.tk%3A6969","udp%3A%2F%2Fexodus.desync.com%3A6969"],"infoHash":"c859c6024d0ded70a78763d1fa5e95ffc3f2a3f4","infoHashBuffer":{"type":"Buffer","data":[200,89,198,2,77,13,237,112,167,135,99,209,250,94,149,255,195,242,163,244]},"announce":[],"urlList":[]}}